<?xml version="1.0" encoding="UTF-8"?>
<svg xmlns="http://www.w3.org/2000/svg" xmlns:xlink="http://www.w3.org/1999/xlink" width="153px" height="25px" viewBox="0 0 153 25" version="1.1">
<g id="surface1">
<path style=" stroke:none;fill-rule:nonzero;fill:rgb(47.058824%,76.078431%,34.117647%);fill-opacity:1;" d="M 9.414062 19.304688 C 6.105469 19.304688 3.441406 16.628906 3.441406 13.253906 C 3.441406 9.941406 6.105469 7.210938 9.414062 7.210938 C 11.441406 7.210938 13.414062 8.136719 14.398438 9.824219 C 14.457031 9.941406 14.574219 10.058594 14.574219 10.347656 L 14.574219 16.105469 C 14.574219 16.394531 14.457031 16.570312 14.398438 16.6875 C 13.238281 18.3125 11.441406 19.304688 9.414062 19.304688 Z M 16.894531 21.277344 L 16.894531 5.289062 L 14.574219 5.289062 L 14.574219 7.152344 C 13.238281 5.8125 11.382812 5 9.238281 5 C 4.714844 5 1.121094 8.722656 1.121094 13.253906 C 1.121094 17.847656 4.714844 21.570312 9.238281 21.570312 C 11.382812 21.570312 13.179688 20.753906 14.574219 19.417969 L 14.574219 21.277344 Z M 34.230469 21.277344 L 34.230469 12.441406 C 34.230469 8.082031 30.925781 5 26.75 5 C 22.632812 5 19.328125 8.136719 19.328125 12.441406 L 19.328125 21.277344 L 21.648438 21.277344 L 21.648438 12.441406 C 21.648438 9.417969 23.910156 7.324219 26.75 7.324219 C 29.648438 7.324219 31.910156 9.417969 31.910156 12.441406 L 31.910156 21.277344 Z M 44.550781 19.304688 C 41.246094 19.304688 38.578125 16.628906 38.578125 13.253906 C 38.578125 9.941406 41.246094 7.210938 44.550781 7.210938 C 46.582031 7.210938 48.496094 8.195312 49.539062 9.824219 C 49.597656 9.941406 49.710938 10.058594 49.710938 10.347656 L 49.710938 16.160156 C 49.710938 16.457031 49.597656 16.628906 49.539062 16.6875 C 48.4375 18.3125 46.582031 19.304688 44.550781 19.304688 Z M 52.03125 21.277344 L 52.03125 0.523438 L 49.710938 0.523438 L 49.710938 7.152344 C 48.378906 5.8125 46.523438 5 44.375 5 C 39.855469 5 36.257812 8.722656 36.257812 13.3125 C 36.257812 17.90625 39.855469 21.628906 44.375 21.628906 C 46.523438 21.628906 48.320312 20.8125 49.710938 19.476562 L 49.710938 21.339844 Z M 56.84375 21.277344 L 56.84375 12.210938 C 56.84375 9.011719 58.8125 7.269531 61.832031 7.269531 L 61.832031 4.941406 C 57.367188 4.941406 54.523438 7.558594 54.523438 12.210938 L 54.523438 21.222656 Z M 70.121094 19.246094 C 66.816406 19.246094 64.210938 16.570312 64.210938 13.3125 C 64.210938 10.058594 66.875 7.382812 70.121094 7.382812 C 73.425781 7.382812 76.035156 10.058594 76.035156 13.3125 C 76.035156 16.570312 73.425781 19.246094 70.121094 19.246094 Z M 70.121094 21.570312 C 74.703125 21.570312 78.414062 17.847656 78.414062 13.253906 C 78.414062 8.660156 74.703125 5 70.121094 5 C 65.539062 5 61.832031 8.722656 61.832031 13.253906 C 61.832031 17.847656 65.539062 21.570312 70.121094 21.570312 Z M 82.007812 3.488281 C 82.820312 3.488281 83.457031 2.847656 83.457031 2.035156 C 83.457031 1.222656 82.820312 0.523438 82.007812 0.523438 C 81.195312 0.523438 80.558594 1.222656 80.558594 2.035156 C 80.5 2.847656 81.195312 3.488281 82.007812 3.488281 Z M 83.109375 5.289062 L 80.789062 5.289062 L 80.789062 21.277344 L 83.109375 21.277344 Z M 93.894531 19.304688 C 90.589844 19.304688 87.921875 16.628906 87.921875 13.253906 C 87.921875 9.941406 90.589844 7.210938 93.894531 7.210938 C 95.921875 7.210938 97.835938 8.195312 98.882812 9.824219 C 98.9375 9.941406 99.054688 10.058594 99.054688 10.347656 L 99.054688 16.160156 C 99.054688 16.457031 98.9375 16.628906 98.882812 16.6875 C 97.777344 18.3125 95.921875 19.304688 93.894531 19.304688 Z M 101.375 21.277344 L 101.375 0.523438 L 99.054688 0.523438 L 99.054688 7.152344 C 97.722656 5.8125 95.867188 5 93.722656 5 C 89.195312 5 85.605469 8.722656 85.605469 13.253906 C 85.605469 17.847656 89.195312 21.570312 93.722656 21.570312 C 95.808594 21.570312 97.664062 20.753906 99.054688 19.417969 L 99.054688 21.277344 Z M 101.375 21.277344 "/>
<path style=" stroke:none;fill-rule:nonzero;fill:rgb(0%,0%,0%);fill-opacity:1;" d="M 112.855469 3.722656 C 112.507812 3.371094 112.332031 2.90625 112.332031 2.382812 C 112.332031 1.863281 112.507812 1.394531 112.855469 1.042969 C 113.203125 0.695312 113.667969 0.523438 114.1875 0.523438 C 114.769531 0.523438 115.234375 0.695312 115.582031 1.042969 C 115.929688 1.394531 116.101562 1.863281 116.101562 2.382812 C 116.101562 2.90625 115.929688 3.371094 115.582031 3.722656 C 115.234375 4.070312 114.769531 4.246094 114.1875 4.246094 C 113.667969 4.246094 113.203125 4.070312 112.855469 3.722656 Z M 112.621094 6.457031 L 115.753906 6.457031 L 115.753906 20.8125 L 112.621094 20.8125 C 112.621094 20.8125 112.621094 6.457031 112.621094 6.457031 Z M 123.0625 19.882812 C 121.726562 19.011719 120.683594 17.847656 119.929688 16.277344 C 119.175781 14.769531 118.828125 13.023438 118.828125 11.042969 C 118.828125 9.011719 119.234375 7.210938 119.988281 5.636719 C 120.742188 4.070312 121.84375 2.789062 123.175781 1.917969 C 124.511719 1.042969 126.132812 0.582031 127.929688 0.582031 C 129.671875 0.582031 131.238281 0.988281 132.628906 1.863281 C 133.960938 2.730469 135.003906 3.894531 135.757812 5.464844 C 136.511719 7.035156 136.859375 8.777344 136.859375 10.695312 C 136.859375 12.789062 136.511719 14.59375 135.757812 16.160156 C 135.003906 17.730469 133.960938 18.957031 132.570312 19.824219 C 131.179688 20.695312 129.554688 21.160156 127.757812 21.160156 C 125.960938 21.160156 124.394531 20.753906 123.0625 19.882812 Z M 130.832031 17.617188 C 131.699219 16.917969 132.339844 16.042969 132.804688 14.824219 C 133.265625 13.605469 133.5 12.324219 133.5 10.8125 C 133.5 9.363281 133.265625 8.023438 132.804688 6.863281 C 132.339844 5.695312 131.644531 4.769531 130.832031 4.128906 C 129.960938 3.488281 128.972656 3.136719 127.871094 3.136719 C 126.710938 3.136719 125.730469 3.488281 124.859375 4.128906 C 123.988281 4.824219 123.351562 5.695312 122.886719 6.917969 C 122.421875 8.136719 122.191406 9.417969 122.191406 10.929688 C 122.191406 12.382812 122.421875 13.660156 122.886719 14.824219 C 123.351562 15.988281 123.988281 16.917969 124.859375 17.558594 C 125.730469 18.195312 126.710938 18.542969 127.8125 18.542969 C 128.972656 18.605469 129.960938 18.253906 130.832031 17.617188 Z M 139.121094 19.941406 L 139.878906 17.269531 C 141.269531 18.136719 142.773438 18.542969 144.457031 18.542969 C 145.617188 18.542969 146.542969 18.253906 147.242188 17.730469 C 147.9375 17.210938 148.285156 16.457031 148.285156 15.523438 C 148.285156 14.710938 147.996094 14.011719 147.472656 13.488281 C 146.949219 12.964844 146.023438 12.441406 144.6875 11.917969 C 142.949219 11.222656 141.617188 10.464844 140.746094 9.476562 C 139.878906 8.542969 139.472656 7.441406 139.472656 6.160156 C 139.472656 5.058594 139.761719 4.128906 140.28125 3.253906 C 140.863281 2.441406 141.617188 1.746094 142.65625 1.277344 C 143.703125 0.8125 144.863281 0.582031 146.136719 0.582031 C 147.996094 0.582031 149.5 0.871094 150.601562 1.511719 L 149.847656 4.128906 C 148.75 3.488281 147.472656 3.195312 146.082031 3.195312 C 145.035156 3.195312 144.222656 3.429688 143.585938 3.894531 C 142.949219 4.363281 142.601562 5 142.601562 5.8125 C 142.601562 6.339844 142.714844 6.746094 142.949219 7.152344 C 143.179688 7.558594 143.585938 7.90625 144.109375 8.195312 C 144.628906 8.542969 145.441406 8.894531 146.429688 9.304688 C 148.109375 10 149.386719 10.8125 150.195312 11.746094 C 151.007812 12.675781 151.414062 13.839844 151.414062 15.175781 C 151.414062 16.339844 151.125 17.382812 150.542969 18.253906 C 149.964844 19.128906 149.097656 19.824219 148.054688 20.289062 C 146.949219 20.753906 145.675781 20.988281 144.222656 20.988281 C 142.136719 21.160156 140.457031 20.753906 139.121094 19.941406 Z M 139.121094 19.941406 "/>
<path style=" stroke:none;fill-rule:nonzero;fill:rgb(0%,0%,0%);fill-opacity:1;" d="M 107.1875 19.367188 L 109.320312 19.667969 L 109.074219 21.410156 L 106.96875 24.40625 L 105.667969 24.222656 L 106.941406 21.113281 Z M 107.1875 19.367188 "/>
</g>
</svg>
