<?xml version="1.0" encoding="UTF-8"?>
<svg xmlns="http://www.w3.org/2000/svg" xmlns:xlink="http://www.w3.org/1999/xlink" width="182px" height="30px" viewBox="0 0 181 30" version="1.1">
<g id="surface1">
<path style=" stroke:none;fill-rule:nonzero;fill:rgb(0%,0%,0%);fill-opacity:1;" d="M 0 0 L 38.027344 0 L 38.027344 29.976562 L 0 29.976562 Z M 0 0 "/>
<path style=" stroke:none;fill-rule:nonzero;fill:rgb(0%,0%,0%);fill-opacity:1;" d="M 40.234375 15.425781 L 40.234375 13.492188 L 46.363281 13.492188 C 47.046875 13.492188 47.390625 13.191406 47.390625 12.59375 C 47.390625 12.007812 47.046875 11.714844 46.363281 11.714844 L 43.296875 11.714844 C 42.21875 11.714844 41.394531 11.476562 40.824219 10.992188 C 40.257812 10.507812 39.976562 9.8125 39.976562 8.90625 C 39.976562 8 40.253906 7.304688 40.8125 6.824219 C 41.375 6.339844 42.171875 6.09375 43.207031 6.09375 L 50.101562 6.09375 L 50.101562 8.046875 L 43.996094 8.046875 C 43.296875 8.046875 42.945312 8.332031 42.945312 8.90625 C 42.945312 9.492188 43.296875 9.785156 43.996094 9.785156 L 47.128906 9.785156 C 48.179688 9.785156 48.980469 10.027344 49.53125 10.511719 C 50.082031 10.992188 50.359375 11.6875 50.359375 12.59375 C 50.359375 13.511719 50.082031 14.214844 49.53125 14.703125 C 48.980469 15.183594 48.179688 15.425781 47.128906 15.425781 Z M 40.234375 15.425781 "/>
<path style=" stroke:none;fill-rule:nonzero;fill:rgb(0%,0%,0%);fill-opacity:1;" d="M 55.390625 15.425781 C 54.125 15.425781 53.136719 15.117188 52.417969 14.507812 C 51.699219 13.894531 51.339844 12.914062 51.339844 11.558594 L 51.339844 6.09375 L 54.3125 6.09375 L 54.3125 11.578125 C 54.3125 12.230469 54.480469 12.699219 54.8125 12.984375 C 55.144531 13.269531 55.578125 13.414062 56.117188 13.414062 L 58.621094 13.414062 L 58.621094 6.09375 L 61.589844 6.09375 L 61.589844 15.425781 Z M 55.390625 15.425781 "/>
<path style=" stroke:none;fill-rule:nonzero;fill:rgb(0%,0%,0%);fill-opacity:1;" d="M 63.207031 15.425781 L 63.207031 6.09375 L 69.335938 6.09375 C 70.722656 6.09375 71.742188 6.371094 72.390625 6.929688 C 73.042969 7.480469 73.371094 8.234375 73.371094 9.191406 C 73.371094 10.136719 73.050781 10.886719 72.40625 11.441406 C 71.761719 11.992188 70.738281 12.269531 69.335938 12.269531 L 66.175781 12.269531 L 66.175781 15.425781 Z M 70.246094 9.199219 C 70.246094 8.417969 69.765625 8.027344 68.8125 8.027344 L 66.175781 8.027344 L 66.175781 10.355469 L 68.8125 10.355469 C 69.765625 10.355469 70.246094 9.96875 70.246094 9.199219 Z M 70.246094 9.199219 "/>
<path style=" stroke:none;fill-rule:nonzero;fill:rgb(0%,0%,0%);fill-opacity:1;" d="M 84.15625 8.027344 L 80.324219 8.027344 C 79.394531 8.027344 78.722656 8.171875 78.308594 8.457031 C 77.894531 8.742188 77.652344 9.171875 77.582031 9.746094 L 84.15625 9.746094 L 84.15625 11.65625 L 77.582031 11.65625 C 77.609375 12.21875 77.832031 12.660156 78.242188 12.984375 C 78.65625 13.308594 79.351562 13.472656 80.324219 13.472656 L 84.15625 13.472656 L 84.15625 15.425781 L 79.949219 15.425781 C 78.160156 15.425781 76.816406 15.035156 75.90625 14.253906 C 75.003906 13.46875 74.550781 12.304688 74.550781 10.757812 C 74.550781 9.214844 75.003906 8.054688 75.90625 7.273438 C 76.816406 6.488281 78.160156 6.09375 79.949219 6.09375 L 84.15625 6.09375 Z M 84.15625 8.027344 "/>
<path style=" stroke:none;fill-rule:nonzero;fill:rgb(0%,0%,0%);fill-opacity:1;" d="M 92.886719 8.898438 C 92.886719 8.042969 92.410156 8.027344 91.453125 8.027344 L 88.429688 8.027344 L 88.429688 10.203125 L 91.453125 10.203125 C 92.410156 10.203125 92.886719 9.769531 92.886719 8.898438 Z M 91.121094 12.117188 L 88.429688 12.117188 L 88.429688 15.425781 L 85.460938 15.425781 L 85.460938 6.09375 L 92.175781 6.09375 C 93.476562 6.09375 94.441406 6.394531 95.066406 6.992188 C 95.699219 7.585938 96.015625 7.945312 96.015625 8.890625 C 96.015625 9.847656 95.703125 10.625 95.082031 11.21875 C 94.765625 11.523438 94.363281 11.75 93.875 11.894531 L 96.433594 15.425781 L 93.339844 15.425781 Z M 91.121094 12.117188 "/>
<path style=" stroke:none;fill-rule:nonzero;fill:rgb(0%,0%,0%);fill-opacity:1;" d="M 102.070312 10.757812 C 102.070312 9.214844 102.523438 8.054688 103.425781 7.273438 C 104.335938 6.488281 105.683594 6.09375 107.46875 6.09375 L 111.679688 6.09375 L 111.679688 8.027344 L 107.84375 8.027344 C 106.914062 8.027344 106.242188 8.171875 105.828125 8.457031 C 105.417969 8.742188 105.175781 9.171875 105.101562 9.746094 L 111.679688 9.746094 L 111.679688 11.65625 L 105.042969 11.65625 L 105.042969 15.425781 L 102.070312 15.425781 Z M 102.070312 10.757812 "/>
<path style=" stroke:none;fill-rule:nonzero;fill:rgb(0%,0%,0%);fill-opacity:1;" d="M 115.898438 15.425781 C 114.804688 15.425781 113.960938 15.171875 113.367188 14.664062 C 112.777344 14.152344 112.480469 13.445312 112.480469 12.542969 C 112.480469 11.644531 112.777344 10.941406 113.367188 10.433594 C 113.960938 9.921875 114.804688 9.667969 115.898438 9.667969 L 120.023438 9.667969 L 120.023438 9.328125 C 120.023438 8.855469 119.910156 8.523438 119.6875 8.332031 C 119.464844 8.140625 119.082031 8.046875 118.539062 8.046875 L 113.1875 8.046875 L 113.1875 6.09375 L 118.648438 6.09375 C 120.183594 6.09375 121.292969 6.386719 121.96875 6.972656 C 122.652344 7.558594 122.996094 8.515625 122.996094 9.84375 L 122.996094 15.425781 Z M 120.023438 11.578125 L 116.695312 11.578125 C 115.898438 11.578125 115.496094 11.898438 115.496094 12.542969 C 115.496094 13.1875 115.898438 13.511719 116.695312 13.511719 L 120.023438 13.511719 Z M 120.023438 11.578125 "/>
<path style=" stroke:none;fill-rule:nonzero;fill:rgb(0%,0%,0%);fill-opacity:1;" d="M 135.652344 15.425781 L 135.652344 9.84375 C 135.652344 9.21875 135.496094 8.773438 135.183594 8.507812 C 134.871094 8.238281 134.355469 8.105469 133.632812 8.105469 L 133.015625 8.105469 L 133.015625 15.425781 L 130.046875 15.425781 L 130.046875 8.105469 L 127.542969 8.105469 L 127.542969 15.425781 L 124.570312 15.425781 L 124.570312 6.09375 L 134.140625 6.09375 C 135.707031 6.09375 136.84375 6.402344 137.550781 7.011719 C 138.261719 7.625 138.617188 8.605469 138.617188 9.960938 L 138.617188 15.425781 Z M 135.652344 15.425781 "/>
<path style=" stroke:none;fill-rule:nonzero;fill:rgb(0%,0%,0%);fill-opacity:1;" d="M 142.464844 6.09375 L 142.464844 15.425781 L 139.492188 15.425781 L 139.492188 6.09375 Z M 142.464844 6.09375 "/>
<path style=" stroke:none;fill-rule:nonzero;fill:rgb(0%,0%,0%);fill-opacity:1;" d="M 153.445312 8.066406 L 149.882812 8.066406 C 148.800781 8.066406 148.019531 8.277344 147.535156 8.699219 C 147.050781 9.117188 146.808594 9.804688 146.808594 10.757812 C 146.808594 11.714844 147.046875 12.402344 147.523438 12.820312 C 148 13.242188 148.777344 13.453125 149.863281 13.453125 L 153.445312 13.453125 L 153.445312 15.425781 L 149.125 15.425781 C 147.378906 15.425781 146.0625 15.035156 145.175781 14.253906 C 144.289062 13.46875 143.84375 12.304688 143.84375 10.757812 C 143.84375 9.21875 144.289062 8.058594 145.175781 7.273438 C 146.0625 6.488281 147.378906 6.09375 149.125 6.09375 L 153.445312 6.09375 Z M 153.445312 8.066406 "/>
<path style=" stroke:none;fill-rule:nonzero;fill:rgb(0%,0%,0%);fill-opacity:1;" d="M 165.714844 10.898438 C 165.714844 11.703125 165.582031 12.402344 165.3125 12.992188 C 165.042969 13.578125 164.65625 14.0625 164.152344 14.445312 C 163.648438 14.820312 163.039062 15.101562 162.316406 15.289062 C 161.597656 15.472656 160.78125 15.5625 159.863281 15.5625 C 158.945312 15.5625 158.128906 15.472656 157.40625 15.289062 C 156.6875 15.101562 156.078125 14.820312 155.574219 14.445312 C 155.074219 14.0625 154.6875 13.578125 154.414062 12.992188 C 154.148438 12.402344 154.011719 11.703125 154.011719 10.898438 C 154.011719 10.089844 154.148438 9.394531 154.414062 8.808594 C 154.6875 8.21875 155.074219 7.738281 155.574219 7.359375 C 156.078125 6.976562 156.6875 6.695312 157.40625 6.511719 C 158.128906 6.328125 158.945312 6.234375 159.863281 6.234375 C 160.78125 6.234375 161.597656 6.328125 162.316406 6.511719 C 163.039062 6.695312 163.648438 6.976562 164.152344 7.359375 C 164.65625 7.738281 165.042969 8.21875 165.3125 8.808594 C 165.582031 9.394531 165.714844 10.089844 165.714844 10.898438 Z M 159.863281 13.589844 C 161.785156 13.589844 162.742188 12.695312 162.742188 10.898438 C 162.742188 9.101562 161.785156 8.203125 159.863281 8.203125 C 157.945312 8.203125 156.984375 9.101562 156.984375 10.898438 C 156.984375 12.695312 157.945312 13.589844 159.863281 13.589844 Z M 159.863281 13.589844 "/>
<path style=" stroke:none;fill-rule:nonzero;fill:rgb(0%,0%,0%);fill-opacity:1;" d="M 178.054688 15.425781 L 178.054688 9.84375 C 178.054688 9.21875 177.898438 8.773438 177.589844 8.507812 C 177.277344 8.238281 176.761719 8.105469 176.039062 8.105469 L 175.421875 8.105469 L 175.421875 15.425781 L 172.449219 15.425781 L 172.449219 8.105469 L 169.945312 8.105469 L 169.945312 15.425781 L 166.976562 15.425781 L 166.976562 6.09375 L 176.542969 6.09375 C 178.109375 6.09375 179.246094 6.402344 179.957031 7.011719 C 180.664062 7.625 181.019531 8.605469 181.019531 9.960938 L 181.019531 15.425781 Z M 178.054688 15.425781 "/>
<path style=" stroke:none;fill-rule:nonzero;fill:rgb(0%,0%,0%);fill-opacity:1;" d="M 40.125 18.402344 L 40.125 19.984375 L 45.558594 19.996094 L 45.558594 20.566406 C 45.558594 22.300781 43.742188 23.117188 42.238281 23.117188 L 40.082031 23.117188 L 40.082031 24.699219 L 42.460938 24.699219 C 43.449219 24.699219 44.554688 24.222656 45.386719 23.433594 L 46.238281 24.699219 L 48.257812 24.699219 L 46.269531 22.269531 C 46.527344 21.765625 46.679688 21.207031 46.679688 20.605469 L 46.679688 18.402344 Z M 40.125 18.402344 "/>
<path style=" stroke:none;fill-rule:nonzero;fill:rgb(0%,0%,0%);fill-opacity:1;" d="M 47.59375 20.800781 L 53.359375 20.800781 L 53.359375 22.203125 L 47.59375 22.203125 Z M 47.59375 20.800781 "/>
<path style=" stroke:none;fill-rule:nonzero;fill:rgb(0%,0%,0%);fill-opacity:1;" d="M 62.421875 20.800781 L 68.191406 20.800781 L 68.191406 22.203125 L 62.421875 22.203125 Z M 62.421875 20.800781 "/>
<path style=" stroke:none;fill-rule:nonzero;fill:rgb(0%,0%,0%);fill-opacity:1;" d="M 76.765625 19.996094 L 76.765625 20.980469 C 76.765625 22.71875 75.417969 23.117188 73.917969 23.117188 L 70.761719 23.117188 L 70.761719 24.699219 L 74.027344 24.699219 C 75.921875 24.699219 77.886719 23.53125 77.886719 21.1875 L 77.886719 18.402344 L 70.25 18.402344 L 70.25 19.984375 Z M 76.765625 19.996094 "/>
<path style=" stroke:none;fill-rule:nonzero;fill:rgb(0%,0%,0%);fill-opacity:1;" d="M 80.71875 24.699219 L 79.046875 24.699219 L 79.046875 23.261719 L 80.914062 23.261719 C 81.253906 23.261719 81.441406 22.992188 81.441406 22.707031 L 81.441406 22.078125 L 83.699219 22.078125 C 84.113281 22.078125 84.289062 21.792969 84.289062 21.546875 L 84.289062 21.1875 L 78.660156 21.1875 L 78.660156 19.84375 L 85.292969 19.84375 L 85.292969 21.714844 C 85.292969 22.574219 84.414062 23.285156 83.769531 23.285156 L 82.28125 23.285156 C 82.28125 23.925781 81.910156 24.699219 80.71875 24.699219 Z M 80.71875 24.699219 "/>
<path style=" stroke:none;fill-rule:nonzero;fill:rgb(0%,0%,0%);fill-opacity:1;" d="M 94.121094 19.117188 L 86.132812 18.246094 L 86.132812 19.695312 L 94.121094 20.570312 Z M 94.121094 19.117188 "/>
<path style=" stroke:none;fill-rule:nonzero;fill:rgb(0%,0%,0%);fill-opacity:1;" d="M 94.121094 21.226562 L 86.132812 20.355469 L 86.132812 21.804688 L 94.121094 22.679688 Z M 94.121094 21.226562 "/>
<path style=" stroke:none;fill-rule:nonzero;fill:rgb(0%,0%,0%);fill-opacity:1;" d="M 94.121094 23.277344 L 86.132812 22.402344 L 86.132812 23.855469 L 94.121094 24.730469 Z M 94.121094 23.277344 "/>
<path style=" stroke:none;fill-rule:nonzero;fill:rgb(0%,0%,0%);fill-opacity:1;" d="M 54.097656 24.699219 L 53.460938 24.699219 L 53.460938 23.109375 L 53.902344 23.109375 C 55.355469 23.109375 56.082031 22.101562 56.082031 20.972656 L 56.082031 18.363281 L 57.285156 18.363281 L 57.285156 21.277344 C 57.285156 23.449219 56.023438 24.699219 54.097656 24.699219 Z M 54.097656 24.699219 "/>
<path style=" stroke:none;fill-rule:nonzero;fill:rgb(0%,0%,0%);fill-opacity:1;" d="M 61.5 24.699219 L 62.136719 24.699219 L 62.136719 23.109375 L 61.695312 23.109375 C 60.242188 23.109375 59.511719 22.101562 59.511719 20.972656 L 59.511719 18.363281 L 58.308594 18.363281 L 58.308594 21.277344 C 58.308594 23.449219 59.574219 24.699219 61.5 24.699219 Z M 61.5 24.699219 "/>
<path style=" stroke:none;fill-rule:nonzero;fill:rgb(0%,0%,0%);fill-opacity:1;" d="M 61.078125 18.230469 C 60.445312 18.230469 59.925781 18.75 59.925781 19.386719 C 59.925781 20.019531 60.445312 20.542969 61.078125 20.542969 C 61.714844 20.542969 62.230469 20.019531 62.230469 19.386719 C 62.230469 18.75 61.714844 18.230469 61.078125 18.230469 Z M 61.078125 18.757812 C 61.429688 18.757812 61.703125 19.035156 61.703125 19.386719 C 61.703125 19.734375 61.429688 20.011719 61.078125 20.011719 C 60.730469 20.011719 60.453125 19.734375 60.453125 19.386719 C 60.453125 19.035156 60.730469 18.757812 61.078125 18.757812 Z M 61.078125 18.757812 "/>
<path style=" stroke:none;fill-rule:nonzero;fill:rgb(0%,0%,0%);fill-opacity:1;" d="M 94.96875 18.339844 L 94.96875 20.035156 L 101.613281 20.035156 L 101.613281 23.039062 L 94.96875 23.039062 L 94.96875 24.699219 L 102.96875 24.699219 L 102.96875 18.339844 Z M 94.96875 18.339844 "/>
<path style=" stroke:none;fill-rule:nonzero;fill:rgb(0%,0%,0%);fill-opacity:1;" d="M 110.574219 18.292969 L 110.574219 21.121094 C 110.574219 22.429688 109.117188 23.136719 108.296875 23.136719 L 103.769531 23.136719 L 103.769531 24.699219 L 108.648438 24.699219 C 109.921875 24.699219 111.734375 23.628906 111.734375 21.46875 L 111.734375 18.292969 Z M 103.773438 18.328125 L 103.773438 20.035156 L 108.671875 20.035156 L 108.671875 18.328125 Z M 103.773438 18.328125 "/>
<path style=" stroke:none;fill-rule:nonzero;fill:rgb(92.54902%,11.372549%,13.72549%);fill-opacity:1;" d="M 29.210938 8.945312 C 28.382812 8.945312 27.5625 9.113281 26.796875 9.441406 C 24.527344 10.414062 23.058594 12.65625 23.070312 15.132812 C 24.648438 15.144531 26.160156 15.722656 27.285156 16.75 C 28.542969 17.898438 29.199219 19.496094 29.082031 21.128906 L 29.222656 21.269531 C 31.710938 21.261719 33.949219 19.746094 34.890625 17.433594 C 35.828125 15.121094 35.285156 12.46875 33.511719 10.714844 C 32.363281 9.582031 30.820312 8.945312 29.210938 8.945312 Z M 29.210938 8.945312 "/>
<path style=" stroke:none;fill-rule:nonzero;fill:rgb(26.27451%,72.54902%,91.372549%);fill-opacity:1;" d="M 16.984375 2.824219 C 16.15625 2.824219 15.332031 2.992188 14.570312 3.320312 C 12.300781 4.292969 10.832031 6.535156 10.84375 9.011719 C 12.421875 9.023438 13.933594 9.601562 15.058594 10.625 C 16.316406 11.773438 16.972656 13.375 16.855469 15.007812 L 16.996094 15.148438 C 19.484375 15.140625 21.722656 13.625 22.660156 11.3125 C 23.601562 9 23.058594 6.34375 21.285156 4.59375 C 20.136719 3.460938 18.59375 2.824219 16.984375 2.824219 Z M 16.984375 2.824219 "/>
<path style=" stroke:none;fill-rule:nonzero;fill:rgb(48.235294%,75.294118%,28.627451%);fill-opacity:1;" d="M 16.238281 16.90625 C 16.238281 14.953125 13.09375 13.367188 9.214844 13.367188 C 5.335938 13.367188 2.191406 14.953125 2.191406 16.90625 C 2.191406 18.859375 5.335938 20.441406 9.214844 20.441406 C 13.09375 20.441406 16.238281 18.859375 16.238281 16.90625 Z M 16.238281 16.90625 "/>
<path style=" stroke:none;fill-rule:nonzero;fill:rgb(93.333333%,90.980392%,8.627451%);fill-opacity:1;" d="M 28.460938 23.070312 C 28.460938 21.117188 25.316406 19.535156 21.441406 19.535156 C 17.5625 19.535156 14.417969 21.117188 14.417969 23.070312 C 14.417969 25.023438 17.5625 26.609375 21.441406 26.609375 C 25.316406 26.609375 28.460938 25.023438 28.460938 23.070312 Z M 28.460938 23.070312 "/>
</g>
</svg>
