<?xml version="1.0" encoding="UTF-8"?>
<svg xmlns="http://www.w3.org/2000/svg" xmlns:xlink="http://www.w3.org/1999/xlink" width="170px" height="20px" viewBox="0 0 170 20" version="1.1">
<g id="surface1">
<path style=" stroke:none;fill-rule:nonzero;fill:rgb(12.156863%,0%,80%);fill-opacity:1;" d="M 59.710938 0.417969 C 61.875 0.417969 63.1875 1.351562 64.453125 2.886719 C 64.917969 2.460938 65.382812 2.078125 65.933594 1.742188 C 67.246094 0.886719 68.730469 0.460938 70.210938 0.460938 L 90.101562 0.460938 L 88.789062 2.546875 L 113.757812 2.507812 L 116.042969 6.464844 L 118.070312 2.546875 L 134.660156 2.546875 L 138.765625 5.785156 L 138.765625 2.546875 L 170 2.546875 L 170 17.582031 L 141.179688 17.582031 L 136.988281 14.304688 L 136.988281 17.582031 L 113.628906 17.582031 L 112.0625 14.980469 C 110.796875 16.429688 108.511719 17.582031 104.746094 17.582031 L 84.003906 17.582031 C 83.328125 18.257812 82.609375 18.347656 81.765625 18.304688 L 81.546875 19.664062 L 73.550781 19.664062 L 73.71875 18.519531 C 73.640625 18.558594 73.550781 18.648438 73.46875 18.6875 C 71.601562 19.835938 69.488281 20.222656 67.5 19.753906 C 65.980469 19.414062 64.621094 18.558594 63.605469 17.453125 C 62.253906 18.773438 60.433594 19.664062 58.695312 19.664062 L 19.382812 19.710938 L 18.746094 16.085938 L 17.136719 19.710938 L 10.582031 19.710938 C 8.503906 20.050781 6.433594 19.753906 4.570312 18.816406 C 2.03125 17.453125 0.339844 15.070312 0.0859375 12.382812 C -0.378906 7.914062 1.351562 4.335938 4.996094 2.078125 C 8.503906 -0.09375 12.230469 -0.558594 16.085938 0.804688 L 16.800781 1.054688 L 17.058594 0.460938 L 24.421875 0.460938 L 24.96875 3.785156 L 26.070312 0.417969 L 59.710938 0.417969 "/>
<path style=" stroke:none;fill-rule:nonzero;fill:rgb(100%,100%,100%);fill-opacity:1;" d="M 104.277344 12.640625 L 101.65625 12.640625 L 101.65625 7.273438 L 105.378906 7.273438 C 107.367188 7.273438 108.34375 8.085938 108.34375 9.832031 C 108.34375 11.960938 107.28125 12.640625 104.277344 12.640625 M 122.601562 5.019531 L 119.554688 5.019531 L 119.46875 5.1875 L 116.042969 11.535156 L 112.359375 5.1875 L 112.277344 5.058594 L 109.019531 5.058594 L 109.269531 5.488281 L 109.902344 6.507812 C 108.890625 5.527344 107.367188 5.019531 105.378906 5.019531 L 98.816406 5.019531 L 98.816406 13.277344 L 93.949219 5.1875 L 93.867188 5.058594 L 91.371094 5.058594 L 91.285156 5.1875 L 85.742188 14.554688 L 85.488281 14.980469 L 92.46875 14.980469 L 92.46875 12.769531 L 89.632812 12.769531 L 92.46875 7.617188 L 96.488281 14.8125 L 96.574219 14.941406 L 104.746094 14.941406 C 109.019531 14.941406 111.214844 13.238281 111.214844 9.914062 C 111.214844 9.320312 111.132812 8.804688 111.003906 8.335938 L 114.898438 14.8125 L 114.984375 14.941406 L 116.886719 14.941406 L 116.976562 14.8125 L 122.351562 5.445312 L 122.601562 5.019531 "/>
<path style=" stroke:none;fill-rule:nonzero;fill:rgb(100%,100%,100%);fill-opacity:1;" d="M 141.515625 5.019531 L 141.222656 5.019531 L 141.222656 10.9375 L 133.816406 5.101562 L 133.730469 5.019531 L 131.785156 5.019531 L 131.785156 13.277344 L 126.921875 5.1875 L 126.832031 5.019531 L 124.335938 5.019531 L 124.25 5.1875 L 118.707031 14.511719 L 118.457031 14.980469 L 125.480469 14.980469 L 125.480469 12.769531 L 122.644531 12.769531 L 125.480469 7.617188 L 129.5 14.8125 L 129.582031 14.980469 L 134.410156 14.980469 L 134.410156 8.976562 L 141.8125 14.898438 L 141.902344 14.980469 L 143.847656 14.980469 L 143.847656 5.019531 L 141.515625 5.019531 "/>
<path style=" stroke:none;fill-rule:nonzero;fill:rgb(100%,100%,100%);fill-opacity:1;" d="M 153.238281 5.019531 L 147.445312 5.019531 C 145.410156 5.019531 144.734375 5.65625 144.734375 7.53125 L 144.734375 12.46875 C 144.734375 14.34375 145.410156 14.980469 147.445312 14.980469 L 153.238281 14.980469 C 155.273438 14.980469 155.953125 14.34375 155.953125 12.46875 L 155.953125 11.066406 L 153.070312 11.066406 L 153.070312 12.601562 L 147.527344 12.601562 L 147.527344 7.359375 L 153.070312 7.359375 L 153.070312 8.722656 L 155.953125 8.722656 L 155.953125 7.53125 C 155.953125 5.617188 155.273438 5.019531 153.238281 5.019531 "/>
<path style=" stroke:none;fill-rule:nonzero;fill:rgb(100%,100%,100%);fill-opacity:1;" d="M 167.25 12.640625 L 159.71875 12.640625 L 159.71875 10.894531 L 164.246094 10.894531 L 164.246094 8.722656 L 159.71875 8.722656 L 159.71875 7.273438 L 167.417969 7.273438 L 167.417969 5.019531 L 156.882812 5.019531 L 156.882812 14.980469 L 167.546875 14.980469 L 167.546875 12.640625 L 167.25 12.640625 "/>
<path style=" stroke:none;fill-rule:nonzero;fill:rgb(100%,100%,100%);fill-opacity:1;" d="M 18.539062 10.085938 L 19.761719 7.320312 L 20.316406 10.085938 L 18.539062 10.085938 M 35.417969 2.886719 L 32.121094 10.679688 L 30.722656 2.886719 L 27.847656 2.886719 L 24.121094 14.382812 L 22.214844 2.886719 L 18.664062 2.886719 L 13.242188 15.238281 L 14.046875 10.085938 L 8.675781 10.085938 L 8.253906 12.726562 L 10.492188 12.726562 L 10.242188 14.132812 C 8.972656 14.683594 6.773438 14.511719 5.839844 12.808594 C 5.246094 11.742188 4.699219 9.363281 7.191406 7.191406 C 9.226562 5.398438 12.738281 5.101562 14.773438 6.039062 C 14.773438 6.039062 15.023438 4.550781 15.234375 3.144531 C 11.34375 1.78125 8.296875 2.929688 6.261719 4.164062 C 3.511719 5.867188 2.199219 8.507812 2.539062 12.085938 C 2.960938 16.214844 8.253906 18.816406 12.78125 16.214844 C 12.824219 16.175781 12.867188 16.175781 12.867188 16.175781 L 12.441406 17.152344 L 15.488281 17.152344 L 17.394531 12.898438 L 20.734375 12.898438 L 21.457031 17.152344 L 26.367188 17.152344 L 28.863281 9.234375 L 30.472656 17.152344 L 32.417969 17.152344 L 36.183594 8.382812 L 36.5625 17.152344 L 39.441406 17.152344 L 38.894531 2.886719 L 35.417969 2.886719 "/>
<path style=" stroke:none;fill-rule:nonzero;fill:rgb(100%,100%,100%);fill-opacity:1;" d="M 39.738281 17.113281 L 47.820312 17.113281 L 48.285156 14.042969 L 43.207031 14.042969 L 43.632812 11.535156 L 48.035156 11.535156 L 48.5 8.464844 L 44.054688 8.464844 L 44.4375 5.957031 L 49.515625 5.957031 L 49.980469 2.886719 L 41.984375 2.886719 L 39.738281 17.113281 "/>
<path style=" stroke:none;fill-rule:nonzero;fill:rgb(100%,100%,100%);fill-opacity:1;" d="M 79.183594 7.53125 L 77.40625 2.886719 L 74.058594 2.886719 L 77.488281 10.382812 L 76.429688 17.113281 L 79.351562 17.113281 L 80.238281 11.148438 L 85.441406 2.886719 L 82.058594 2.886719 L 79.183594 7.53125 "/>
<path style=" stroke:none;fill-rule:nonzero;fill:rgb(100%,100%,100%);fill-opacity:1;" d="M 72.40625 11.363281 C 71.648438 13.707031 69.746094 15.070312 68.222656 14.382812 C 66.695312 13.707031 66.105469 11.234375 66.863281 8.851562 C 67.628906 6.507812 69.535156 5.148438 71.054688 5.824219 C 72.621094 6.550781 73.210938 9.023438 72.40625 11.363281 M 71.308594 3.015625 C 68.09375 2.289062 64.746094 4.847656 63.863281 8.765625 C 62.96875 12.679688 64.835938 16.476562 68.050781 17.242188 C 71.265625 18.007812 74.613281 15.410156 75.496094 11.492188 C 76.390625 7.570312 74.484375 3.785156 71.308594 3.015625 "/>
<path style=" stroke:none;fill-rule:nonzero;fill:rgb(100%,100%,100%);fill-opacity:1;" d="M 58.445312 8.59375 C 56.839844 8.59375 56.410156 8.59375 56.410156 8.59375 L 56.878906 5.957031 C 56.878906 5.957031 56.917969 5.957031 58.738281 5.957031 C 60.8125 5.957031 60.433594 8.59375 58.445312 8.59375 M 58.105469 14.34375 C 56.5 14.34375 55.566406 14.34375 55.566406 14.34375 L 56.035156 11.535156 C 56.035156 11.535156 56.621094 11.535156 58.445312 11.535156 C 60.730469 11.492188 60.683594 14.34375 58.105469 14.34375 M 59.800781 2.976562 C 58.230469 2.929688 54.382812 2.976562 54.382812 2.976562 L 54.425781 2.976562 L 52.179688 17.070312 C 52.179688 17.070312 56.792969 17.070312 58.695312 17.070312 C 61.363281 17.070312 65.300781 13.109375 61.746094 9.832031 C 65.382812 5.996094 61.746094 3.015625 59.800781 2.976562 "/>
<path style=" stroke:none;fill-rule:nonzero;fill:rgb(100%,100%,100%);fill-opacity:1;" d="M 81.804688 15.75 L 81.804688 15.195312 L 82.273438 15.195312 C 82.480469 15.195312 82.652344 15.238281 82.652344 15.449219 C 82.652344 15.789062 82.3125 15.75 82.101562 15.75 L 81.804688 15.75 M 82.351562 15.917969 C 82.652344 15.917969 82.859375 15.789062 82.859375 15.449219 C 82.859375 15.320312 82.777344 15.152344 82.691406 15.109375 C 82.566406 15.023438 82.441406 15.023438 82.3125 15.023438 L 81.59375 15.023438 L 81.59375 16.683594 L 81.804688 16.683594 L 81.804688 15.960938 L 82.144531 15.960938 L 82.609375 16.683594 L 82.859375 16.683594 L 82.351562 15.917969 M 82.183594 17.324219 C 82.988281 17.324219 83.664062 16.683594 83.664062 15.835938 C 83.664062 15.023438 83.03125 14.382812 82.183594 14.382812 C 81.378906 14.382812 80.703125 15.023438 80.703125 15.835938 C 80.703125 16.683594 81.339844 17.324219 82.183594 17.324219 M 82.183594 17.070312 C 81.507812 17.070312 80.960938 16.554688 80.960938 15.835938 C 80.960938 15.152344 81.507812 14.601562 82.183594 14.601562 C 82.859375 14.601562 83.414062 15.152344 83.414062 15.835938 C 83.371094 16.554688 82.859375 17.070312 82.183594 17.070312 "/>
</g>
</svg>
