<?xml version="1.0" encoding="UTF-8"?>
<svg xmlns="http://www.w3.org/2000/svg" xmlns:xlink="http://www.w3.org/1999/xlink" width="57px" height="25px" viewBox="0 0 57 25" version="1.1">
<g id="surface1">
<path style=" stroke:none;fill-rule:nonzero;fill:rgb(63.137255%,62.745098%,64.313725%);fill-opacity:1;" d="M 54.972656 22.585938 L 55.496094 22.585938 L 56.027344 24.351562 L 56.5625 22.585938 L 57.09375 22.585938 L 57.09375 24.792969 L 56.746094 24.792969 L 56.746094 22.96875 L 56.199219 24.792969 L 55.84375 24.792969 L 55.308594 22.96875 L 55.308594 24.792969 L 54.972656 24.792969 Z M 52.992188 22.585938 L 54.710938 22.585938 L 54.710938 22.914062 L 54.035156 22.914062 L 54.035156 24.792969 L 53.667969 24.792969 L 53.667969 22.914062 L 52.992188 22.914062 Z M 28.363281 1.367188 L 23.980469 18.648438 C 23.980469 18.648438 20.628906 5.675781 20.082031 3.835938 C 19.539062 1.992188 18.417969 1.183594 16.824219 1.183594 C 15.234375 1.183594 14.109375 1.992188 13.5625 3.835938 C 13.019531 5.675781 9.667969 18.648438 9.667969 18.648438 L 5.28125 1.367188 L 0 1.367188 C 0 1.367188 5.074219 19.804688 5.761719 21.941406 C 6.296875 23.605469 7.570312 24.96875 9.453125 24.96875 C 11.605469 24.96875 12.613281 23.390625 13.078125 21.941406 C 13.539062 20.496094 16.824219 8.320312 16.824219 8.320312 C 16.824219 8.320312 20.109375 20.496094 20.570312 21.941406 C 21.035156 23.390625 22.042969 24.96875 24.195312 24.96875 C 26.078125 24.96875 27.347656 23.605469 27.886719 21.941406 C 28.574219 19.804688 33.644531 1.367188 33.644531 1.367188 Z M 46.472656 24.789062 L 51.472656 24.789062 L 51.472656 8.527344 L 46.472656 8.527344 Z M 45.988281 2.839844 C 45.988281 4.40625 47.304688 5.679688 48.917969 5.679688 C 50.597656 5.679688 51.914062 4.433594 51.914062 2.839844 C 51.914062 1.246094 50.597656 -0.00390625 48.917969 -0.00390625 C 47.304688 -0.00390625 45.988281 1.269531 45.988281 2.839844 M 36.3125 24.789062 L 41.3125 24.789062 L 41.3125 8.527344 L 36.3125 8.527344 Z M 35.828125 2.839844 C 35.828125 4.40625 37.140625 5.679688 38.753906 5.679688 C 40.433594 5.679688 41.753906 4.433594 41.753906 2.839844 C 41.753906 1.246094 40.433594 -0.00390625 38.753906 -0.00390625 C 37.140625 -0.00390625 35.828125 1.269531 35.828125 2.839844 "/>
</g>
</svg>
