<?xml version="1.0" encoding="UTF-8"?>
<svg xmlns="http://www.w3.org/2000/svg" xmlns:xlink="http://www.w3.org/1999/xlink" width="143px" height="30px" viewBox="0 0 142 30" version="1.1">
<g id="surface1">
<path style=" stroke:none;fill-rule:nonzero;fill:rgb(87.45098%,0%,6.666667%);fill-opacity:1;" d="M 17.496094 0.230469 C 19.625 0.230469 21.71875 -0.0195312 23.742188 0.285156 C 27.378906 0.816406 29.914062 4.027344 29.933594 7.734375 C 29.933594 12.578125 29.949219 17.421875 29.933594 22.265625 C 29.914062 26.539062 26.542969 29.894531 22.25 29.894531 C 20.886719 29.894531 19.539062 29.875 18.171875 29.910156 C 17.65625 29.929688 17.425781 29.769531 17.425781 29.21875 C 17.445312 19.640625 17.445312 10.078125 17.445312 0.496094 C 17.445312 0.40625 17.480469 0.320312 17.496094 0.230469 Z M 26.261719 16.535156 C 26.296875 14.9375 25.019531 13.570312 23.40625 13.519531 C 21.808594 13.464844 20.441406 14.8125 20.425781 16.5 C 20.40625 18.078125 21.738281 19.445312 23.332031 19.460938 C 24.914062 19.496094 26.226562 18.183594 26.261719 16.535156 Z M 26.261719 16.535156 "/>
<path style=" stroke:none;fill-rule:nonzero;fill:rgb(87.45098%,0%,6.666667%);fill-opacity:1;" d="M 64.703125 18.839844 C 64.542969 19.355469 64.4375 19.65625 64.347656 19.941406 C 63.566406 22.671875 62.769531 25.386719 62.023438 28.121094 C 61.863281 28.722656 61.632812 29.023438 60.941406 28.972656 C 60.144531 28.898438 59.34375 28.988281 58.546875 28.933594 C 58.296875 28.917969 57.925781 28.6875 57.855469 28.472656 C 56.417969 23.542969 55.035156 18.59375 53.632812 13.644531 C 53.617188 13.570312 53.632812 13.484375 53.652344 13.269531 C 54.625 13.269531 55.601562 13.234375 56.558594 13.304688 C 56.773438 13.324219 57.058594 13.730469 57.128906 14.015625 C 57.960938 17.03125 58.742188 20.066406 59.539062 23.097656 C 59.628906 23.472656 59.753906 23.824219 60.019531 24.199219 C 60.550781 22.390625 61.101562 20.5625 61.632812 18.734375 C 62.09375 17.15625 62.589844 15.558594 63.015625 13.960938 C 63.160156 13.449219 63.371094 13.253906 63.921875 13.234375 C 65.996094 13.21875 65.996094 13.199219 66.582031 15.152344 C 67.382812 17.863281 68.160156 20.597656 68.960938 23.3125 C 69.046875 23.613281 69.15625 23.914062 69.421875 24.214844 C 70.023438 22.015625 70.609375 19.816406 71.210938 17.597656 C 71.53125 16.394531 71.886719 15.203125 72.152344 13.996094 C 72.296875 13.394531 72.578125 13.179688 73.199219 13.234375 C 74.015625 13.289062 74.832031 13.253906 75.71875 13.253906 C 75.664062 13.554688 75.664062 13.75 75.613281 13.945312 C 74.28125 18.664062 72.914062 23.382812 71.601562 28.101562 C 71.425781 28.703125 71.210938 29.007812 70.519531 28.953125 C 69.792969 28.882812 69.046875 28.898438 68.304688 28.953125 C 67.71875 28.988281 67.46875 28.757812 67.328125 28.207031 C 66.566406 25.40625 65.785156 22.636719 65.003906 19.835938 C 64.949219 19.585938 64.84375 19.320312 64.703125 18.839844 Z M 64.703125 18.839844 "/>
<path style=" stroke:none;fill-rule:nonzero;fill:rgb(87.45098%,0%,6.666667%);fill-opacity:1;" d="M 14.480469 0.0898438 L 14.480469 1.117188 C 14.480469 10.359375 14.464844 19.605469 14.5 28.863281 C 14.5 29.644531 14.339844 29.945312 13.488281 29.910156 C 11.539062 29.839844 9.585938 29.894531 7.632812 29.894531 C 3.535156 29.875 0.113281 26.488281 0.113281 22.390625 C 0.09375 17.457031 0.09375 12.523438 0.113281 7.59375 C 0.128906 3.546875 3.519531 0.125 7.5625 0.105469 C 9.816406 0.0898438 12.085938 0.0898438 14.480469 0.0898438 Z M 11.980469 27.480469 L 11.980469 2.464844 C 10.597656 2.464844 9.265625 2.449219 7.953125 2.464844 C 4.847656 2.5 2.5625 4.613281 2.507812 7.71875 C 2.4375 12.597656 2.4375 17.457031 2.507812 22.335938 C 2.542969 25.175781 4.566406 27.25 7.386719 27.464844 C 8.894531 27.570312 10.402344 27.480469 11.980469 27.480469 Z M 11.980469 27.480469 "/>
<path style=" stroke:none;fill-rule:nonzero;fill:rgb(87.45098%,0%,6.666667%);fill-opacity:1;" d="M 135.414062 28.917969 L 132.238281 28.917969 L 132.238281 22.78125 L 124.980469 22.78125 L 124.980469 28.882812 L 121.699219 28.882812 L 121.699219 13.359375 L 124.929688 13.359375 L 124.929688 19.445312 L 132.183594 19.445312 L 132.183594 13.359375 L 135.414062 13.359375 Z M 135.414062 28.917969 "/>
<path style=" stroke:none;fill-rule:nonzero;fill:rgb(87.45098%,0%,6.666667%);fill-opacity:1;" d="M 50.511719 14.226562 C 50.085938 15.222656 49.75 16.054688 49.464844 16.710938 C 47.601562 16.429688 45.882812 16.089844 44.125 15.929688 C 43.363281 15.859375 42.511719 16.054688 41.800781 16.339844 C 41.355469 16.515625 40.824219 17.085938 40.808594 17.492188 C 40.789062 17.882812 41.304688 18.503906 41.730469 18.679688 C 42.582031 19.054688 43.539062 19.179688 44.460938 19.425781 C 46.003906 19.835938 47.566406 20.152344 49.054688 20.703125 C 50.722656 21.308594 51.824219 22.460938 51.804688 24.410156 C 51.789062 26.417969 50.847656 27.816406 49.039062 28.546875 C 45.953125 29.769531 42.792969 29.609375 39.65625 28.6875 C 38.875 28.457031 38.128906 28.101562 37.207031 27.746094 C 37.738281 26.789062 38.21875 25.917969 38.730469 24.996094 C 39.050781 25.140625 39.316406 25.246094 39.566406 25.371094 C 41.605469 26.308594 43.753906 26.59375 45.96875 26.292969 C 46.378906 26.238281 46.785156 26.113281 47.15625 25.972656 C 47.886719 25.707031 48.488281 25.261719 48.488281 24.394531 C 48.488281 23.507812 47.796875 23.167969 47.105469 22.992188 C 45.648438 22.636719 44.140625 22.40625 42.6875 22.050781 C 41.570312 21.769531 40.433594 21.503906 39.421875 20.988281 C 36.957031 19.761719 36.601562 16.710938 38.679688 14.882812 C 39.121094 14.496094 39.617188 14.15625 40.152344 13.910156 C 43.609375 12.402344 47.015625 13.039062 50.511719 14.226562 Z M 50.511719 14.226562 "/>
<path style=" stroke:none;fill-rule:nonzero;fill:rgb(87.45098%,0%,6.666667%);fill-opacity:1;" d="M 118.0625 16.550781 C 117.246094 17.246094 116.429688 17.953125 115.597656 18.644531 C 112.777344 15.808594 109.777344 15.503906 107.613281 17.792969 C 105.699219 19.816406 105.839844 23.046875 107.878906 24.871094 C 109.691406 26.503906 113.183594 26.929688 115.542969 23.703125 C 116.394531 24.429688 117.230469 25.140625 118.0625 25.847656 C 116.324219 28.792969 112.316406 30.285156 108.875 29.308594 C 105.167969 28.261719 102.683594 24.945312 102.734375 21.058594 C 102.769531 17.296875 105.378906 13.980469 108.980469 13.074219 C 112.527344 12.171875 116.429688 13.644531 118.0625 16.550781 Z M 118.0625 16.550781 "/>
<path style=" stroke:none;fill-rule:nonzero;fill:rgb(87.45098%,0%,6.666667%);fill-opacity:1;" d="M 92.003906 16.625 L 87.070312 16.625 L 87.070312 13.339844 L 100.269531 13.339844 L 100.269531 16.585938 L 95.425781 16.585938 L 95.425781 28.882812 L 92.003906 28.882812 Z M 92.003906 16.625 "/>
<path style=" stroke:none;fill-rule:nonzero;fill:rgb(87.45098%,0%,6.666667%);fill-opacity:1;" d="M 83.097656 28.917969 C 82.816406 28.933594 82.566406 28.953125 82.335938 28.972656 C 81.484375 28.972656 80.632812 28.972656 79.710938 28.972656 L 79.710938 13.359375 L 83.097656 13.359375 Z M 83.097656 28.917969 "/>
<path style=" stroke:none;fill-rule:nonzero;fill:rgb(87.45098%,0%,6.666667%);fill-opacity:1;" d="M 131.667969 9.367188 C 129.1875 9.367188 127.214844 7.378906 127.234375 4.914062 C 127.234375 2.449219 129.238281 0.460938 131.6875 0.460938 C 134.117188 0.460938 136.140625 2.5 136.140625 4.949219 C 136.15625 7.378906 134.136719 9.367188 131.667969 9.367188 Z M 134.222656 4.933594 C 134.242188 3.53125 133.105469 2.394531 131.703125 2.378906 C 130.320312 2.359375 129.132812 3.511719 129.132812 4.878906 C 129.113281 6.246094 130.304688 7.433594 131.667969 7.453125 C 133.015625 7.46875 134.207031 6.296875 134.222656 4.933594 Z M 134.222656 4.933594 "/>
<path style=" stroke:none;fill-rule:nonzero;fill:rgb(87.45098%,0%,6.666667%);fill-opacity:1;" d="M 37.933594 0.796875 C 38.910156 0.585938 39.671875 0.640625 40.3125 1.613281 C 41.25 3.070312 42.367188 4.398438 43.59375 5.765625 L 43.59375 0.761719 L 45.277344 0.761719 L 45.277344 8.976562 C 44.355469 9.207031 43.628906 9.117188 43.023438 8.179688 C 42.050781 6.671875 40.914062 5.285156 39.617188 3.867188 L 39.617188 6.085938 C 39.617188 6.617188 39.617188 7.148438 39.617188 7.683594 C 39.617188 8.710938 39.070312 9.136719 37.953125 8.960938 L 37.953125 0.796875 Z M 37.933594 0.796875 "/>
<path style=" stroke:none;fill-rule:nonzero;fill:rgb(87.45098%,0%,6.666667%);fill-opacity:1;" d="M 67.152344 8.976562 C 66.105469 9.261719 65.410156 9.011719 64.84375 8.125 C 63.851562 6.636719 62.734375 5.234375 61.492188 3.867188 L 61.492188 9.011719 L 59.789062 9.011719 L 59.789062 0.871094 C 61.066406 0.496094 61.386719 0.601562 62.128906 1.578125 C 63.195312 3 64.242188 4.398438 65.484375 5.765625 L 65.484375 0.796875 L 67.167969 0.796875 Z M 67.152344 8.976562 "/>
<path style=" stroke:none;fill-rule:nonzero;fill:rgb(87.45098%,0%,6.666667%);fill-opacity:1;" d="M 114.179688 9.15625 L 114.179688 0.871094 C 115.738281 0.871094 117.28125 0.675781 118.753906 0.921875 C 120.636719 1.222656 121.839844 3.015625 121.839844 4.933594 C 121.839844 6.792969 120.636719 8.515625 118.773438 8.871094 C 117.300781 9.136719 115.757812 9.066406 114.179688 9.15625 Z M 115.863281 7.21875 C 116.695312 7.21875 117.40625 7.308594 118.097656 7.203125 C 119.480469 7.007812 120.316406 5.625 119.941406 4.292969 C 119.554688 2.855469 117.351562 1.828125 116.113281 2.519531 C 115.96875 2.589844 115.882812 2.855469 115.882812 3.035156 C 115.84375 4.398438 115.863281 5.75 115.863281 7.21875 Z M 115.863281 7.21875 "/>
<path style=" stroke:none;fill-rule:nonzero;fill:rgb(87.45098%,0%,6.666667%);fill-opacity:1;" d="M 101.335938 3.867188 L 101.335938 9.011719 L 99.648438 9.011719 L 99.648438 0.796875 C 100.644531 0.585938 101.421875 0.65625 102.078125 1.632812 C 103.039062 3.070312 104.15625 4.417969 105.398438 5.765625 L 105.398438 0.78125 L 107.0625 0.78125 L 107.0625 8.996094 C 106.070312 9.242188 105.34375 9.101562 104.722656 8.160156 C 103.746094 6.671875 102.613281 5.269531 101.53125 3.832031 C 101.457031 3.832031 101.386719 3.851562 101.335938 3.867188 Z M 101.335938 3.867188 "/>
<path style=" stroke:none;fill-rule:nonzero;fill:rgb(87.45098%,0%,6.666667%);fill-opacity:1;" d="M 92.75 0.78125 L 92.75 2.269531 L 88.101562 2.269531 L 88.101562 3.9375 L 92.410156 3.9375 C 92.429688 4.488281 92.445312 4.933594 92.484375 5.535156 L 88.082031 5.535156 L 88.082031 7.453125 L 92.714844 7.453125 C 92.730469 7.894531 92.820312 8.230469 92.730469 8.515625 C 92.660156 8.746094 92.375 9.066406 92.179688 9.066406 C 90.265625 9.101562 88.347656 9.082031 86.363281 9.082031 L 86.363281 0.78125 Z M 92.75 0.78125 "/>
<path style=" stroke:none;fill-rule:nonzero;fill:rgb(87.45098%,0%,6.666667%);fill-opacity:1;" d="M 77.617188 9.03125 L 75.808594 9.03125 L 75.808594 2.484375 L 73.21875 2.484375 L 73.21875 0.78125 L 80.171875 0.78125 L 80.171875 2.484375 L 77.632812 2.484375 L 77.632812 9.03125 Z M 77.617188 9.03125 "/>
<path style=" stroke:none;fill-rule:nonzero;fill:rgb(87.45098%,0%,6.666667%);fill-opacity:1;" d="M 53.507812 9.03125 L 51.71875 9.03125 L 51.71875 0.78125 L 53.507812 0.78125 Z M 53.507812 9.03125 "/>
<path style=" stroke:none;fill-rule:nonzero;fill:rgb(87.45098%,0%,6.666667%);fill-opacity:1;" d="M 141.691406 28.933594 C 141.621094 28.597656 141.550781 28.242188 141.460938 27.765625 C 141.230469 28.226562 141.054688 28.582031 140.769531 29.128906 C 140.484375 28.582031 140.308594 28.207031 140.042969 27.695312 C 139.972656 28.191406 139.917969 28.5625 139.863281 28.917969 C 139.777344 28.917969 139.707031 28.917969 139.617188 28.898438 L 139.617188 26.683594 C 140.628906 26.503906 140.203125 27.621094 140.699219 27.925781 C 141.195312 27.640625 140.789062 26.363281 141.90625 26.683594 L 141.90625 28.898438 C 141.832031 28.933594 141.761719 28.933594 141.691406 28.933594 Z M 141.691406 28.933594 "/>
<path style=" stroke:none;fill-rule:nonzero;fill:rgb(87.45098%,0%,6.666667%);fill-opacity:1;" d="M 137.027344 26.71875 L 138.765625 26.71875 C 137.648438 27.179688 138.339844 28.226562 138.003906 29.007812 C 137.292969 28.386719 138.320312 27.074219 137.027344 26.71875 Z M 137.027344 26.71875 "/>
<path style=" stroke:none;fill-rule:nonzero;fill:rgb(87.45098%,0%,6.666667%);fill-opacity:1;" d="M 7.5625 11.867188 C 5.949219 11.867188 4.691406 10.625 4.707031 9.011719 C 4.726562 7.453125 5.96875 6.226562 7.527344 6.226562 C 9.140625 6.226562 10.382812 7.46875 10.367188 9.082031 C 10.367188 10.644531 9.140625 11.851562 7.5625 11.867188 Z M 7.5625 11.867188 "/>
</g>
</svg>
